<?xml version="1.0" encoding="UTF-8"?>
<svg xmlns="http://www.w3.org/2000/svg" version="1.1" viewBox="0 0 1920 1080">
  <defs>
    <style>
      .cls-1 {
        fill: #231f20;
      }
    </style>
  </defs>
  <!-- Generator: Adobe Illustrator 28.7.1, SVG Export Plug-In . SVG Version: 1.2.0 Build 142)  -->
  <g>
    <g id="Capa_1">
      <path class="cls-1" d="M1677.1,577.3c40.1-10.3,82.2-56.7,68.6-153.2-15.6-110.3-112.1-179.8-168.3-211.4-11.3-6.3-19.8-10.5-25.2-13.2-3-2.5-6.5-4.1-10.3-4.7l-2.5-.4-2.4.7c-4.3,1.2-8.6,2.3-12.8,3.5h-3.2s-1.2,1.2-1.2,1.2c-32.3,8.6-65.5,16.4-98.7,23.3-9.2,1.9-18.5,3.8-27.9,5.6l-1.2.2c-132.2,25.5-273.3,39-419.8,40.2-4.2.1-8.3.1-12.4.1-4.4,0-8.5,0-13.1-.1-146.3-1.2-287.4-14.8-419.6-40.2l-1.2-.2c-9.4-1.8-18.7-3.7-28-5.6-33.2-6.8-66.4-14.7-98.8-23.3l-1.3-1.2h-3c-4.3-1.1-8.5-2.2-12.8-3.4l-2.4-.7-2.5.4c-3.7.6-7.2,2.2-10.3,4.7-5.4,2.6-13.9,6.9-25.3,13.2-56.1,31.6-152.6,101-168.2,211.3-13.6,96.5,28.4,142.8,68.3,153.1,6,1.7,12.6,2.5,19.7,2.5,14.9,0,29.6-4,43.3-11.5-7,16.3-16,33.2-26.2,52.4-7.3,13.7-15.5,29.2-23.9,46.4-47.4,96.6-45.2,166,6.7,206.4,9.9,7.7,25.5,6,33.5-3.5,4.1-4.9,6-11.1,5.4-17.4-.7-6.4-3.9-12-9-16-31.9-24.8-29.7-75,6.7-149.1,7.9-16.2,15.6-30.6,23.3-45.1,26.9-50.7,50.2-94.5,47.2-157.2,26.5-68.4,38.3-154.1,43.4-211.5,17.2,23.6,27.6,58.5,8.6,107.4-40.1,104.2-7.9,139.5,23.3,173.8,9.6,10.4,18.1,19.9,25.2,31.5,22.8,37.2-32.8,73.6-33.5,74.1-5.3,3.5-8.9,8.9-10.1,15.1-1.2,6.2.2,12.6,3.9,17.8,7.2,10.2,23.1,12.8,33.1,6,32.5-21.3,84.4-77.5,47.7-137.1-9.3-15.3-19.9-27.1-30.7-38.8-27.4-30.1-44-48.3-14-125.7,22.6-58.2,13.1-102.9-4.1-134.3,14.9,3.3,29.9,6.4,44.8,9.4,178.4,183.8,301.9,374.1,367.1,565.6,9.6,28.2,31.6,46.4,56.2,46.4h59.8c24.6,0,46.7-18.2,56.2-46.3,65.3-191.5,188.8-381.8,367.1-565.7,14.9-2.9,29.9-6.1,44.8-9.4-17.2,31.5-26.7,76.1-4.1,134.3,29.9,77.4,13.4,95.6-14,125.6-10.9,11.7-21.5,23.5-30.7,38.8-36.7,59.7,15.1,115.8,47.5,137.1,10.5,7.1,26.1,4.4,33.3-5.9,3.7-5.3,5.1-11.6,3.9-17.8-1.2-6.2-4.8-11.6-10.2-15.2-.6-.4-55.8-37.4-33.3-73.9,7.2-11.6,15.7-21.1,25.3-31.6,31.2-34.2,63.4-69.5,23.2-173.7-19-48.8-8.6-83.7,8.6-107.3,5.1,57.4,16.9,143.1,43.4,211.5-3,62.6,20.3,106.5,47.5,157.7,7.4,13.9,15,28.4,23,44.5,36.4,74.1,38.7,124.3,6.7,149.1-5.1,4-8.3,9.7-9,16-.7,6.3,1.2,12.5,5.4,17.4,8,9.5,23.6,11.2,33.5,3.5,51.9-40.3,54.2-109.8,6.7-206.4-8.1-16.6-15.9-31.3-23.9-46.4-10.2-19.2-19.2-36.1-26.2-52.4,13.7,7.5,28.4,11.5,43.3,11.5s13.7-.9,19.5-2.5ZM1568.8,371c-4-21-7.1-41.6-9.4-60.4,5.7,17.9,9.6,38.3,9.4,60.4ZM1601.6,285c44,33.3,87.5,81.6,96.5,145.5,8.7,61.5-11.1,95.6-33.3,101.3-2.3.6-4.8.9-7.3.9-16.7,0-40.4-13.6-57-51.6-.4-1.1-.9-2.1-1.3-3.1,1.5-15.1,4.5-31,9.4-48.5,15.6-55.8,7.4-105.7-7-144.5ZM1334.1,286.8c-159.8,174.4-272.1,354.9-334,536.7-3.4,10.1-8.9,14.1-10.6,14.1h-59.8c-1.7,0-7.2-4.1-10.6-14.1-61.9-181.8-174.2-362.3-334-536.7,115.6,18.5,237.1,28.3,361.3,29.4,8.8.3,18,.3,26.3,0,124.4-1,245.9-10.9,361.5-29.4ZM350.3,370.9c-.2-22,3.7-42.4,9.4-60.2-2.3,18.7-5.4,39.2-9.4,60.2ZM310.4,429.5c4.9,17.5,8,33.4,9.4,48.5-.4,1-.8,2-1.2,3-16.6,38.1-40.3,51.7-57,51.7s-5-.3-7.4-.9c-22.1-5.7-41.9-39.8-33.2-101.3,9-63.9,52.5-112.1,96.5-145.5-14.4,38.8-22.6,88.7-7,144.5ZM1477.4,669.6h0s0,0,0,0Z"/>
    </g>
  </g>
</svg>