<?xml version="1.0" encoding="UTF-8"?>
<svg xmlns="http://www.w3.org/2000/svg" version="1.1" viewBox="0 0 1449.3 1449.3">
  <!-- Generator: Adobe Illustrator 28.7.1, SVG Export Plug-In . SVG Version: 1.2.0 Build 142)  -->
  <g>
    <g id="Layer_1">
      <path d="M139.2,1263.2l4.7,2.1c99.9,45.6,228.3,45.6,369.8.9,21.8-6.8,43.4-14.5,64.1-22.8l3.5-1.5h0c27.8-11.4,50.1-22.1,64.5-29.4,58.7-16.1,130.6-16.1,189.3,0,14.4,7.4,36.5,18,64.1,29.1l4,1.8c20.9,8.3,42.5,16,64.1,22.8,70.6,22.3,137.9,33.5,200,33.5s119.7-11.5,169.8-34.4l4.7-2.1,2.8-4.4c4.3-6.5,103.6-163.1,26.8-377.9-40-111.9-79.2-174.8-120.8-241.3-14.8-23.7-30.1-48.3-45.6-75.6-26.4-46.2-45-95.9-55.2-147.7-2.7-13.4-5.5-27.2-8.5-40.9-8.7-40.4-19.1-83.8-28.7-119.2-8.6-32-15.2-53.3-15.5-54.1-4.7-15.3-21.7-24.1-37-19.4-15.3,4.8-23.8,20.7-19.6,36.1,0,.2,5.9,20.9,13.1,52.1,8.1,34.8,16.9,77.4,24.2,118.1,13.8,75.4,9.4,153.7-12.4,226.2-23.2,76.9-55.2,143.4-95.3,197.7-89.1,120.7-130.9,256.8-147.4,324.3-53-10.1-111.8-10.1-164.9,0-16.5-67.5-58.3-203.6-147.4-324.3-40.1-54.3-72.2-120.8-95.3-197.7-21.8-72.5-26.1-150.8-12.2-227.4,7.2-39.6,15.9-82.1,24-117,7.3-31.2,13-51.9,13.1-52.1,4.2-15.4-4.4-31.2-19.6-36-2.9-.8-5.8-1.3-8.8-1.3-12.9,0-24.2,8.3-28.1,20.7-.3.8-6.9,22.1-15.5,54.1-9.6,35.5-20,79-28.7,119.1-3,13.8-5.8,27.6-8.5,41-10.2,51.8-28.8,101.5-55.2,147.7-15.5,27.3-30.8,51.9-45.6,75.6-41.5,66.6-80.7,129.4-120.8,241.3-76.8,214.8,22.5,371.4,26.8,377.9l2.8,4.4ZM854.2,1162.5c12.6-56.4,51.8-201.4,145.3-328,42.5-57.6,76.4-127.8,100.7-208.7,16.8-55.4,23.8-114,21.2-172.7,11.6,45,29.2,88.2,52.5,128.9,15.9,27.8,31.4,52.7,46.4,76.7,40.4,64.9,78.7,126.2,117.4,234.4,63.9,178.6-6,316.2-20.6,341.9-90.9,39.6-208.5,38.2-338.9-3-19.5-6.1-38.9-12.9-57.6-20.4l-4-1.7c-29-11.6-52-22.7-66.3-30l3.8-17.4ZM143.5,893c38.7-108.3,77-169.5,117.4-234.4,15-24,30.4-48.9,46.4-76.7,23.2-40.6,40.8-83.8,52.4-128.6-2.5,58.4,4.6,116.9,21.3,172.4,24.3,80.9,58.2,151.1,100.8,208.7,93.5,126.6,132.8,271.6,145.2,328l3.8,17.4c-14.2,7.3-37.2,18.3-66.3,30l-3.2,1.4c-19,7.5-38.6,14.4-58.5,20.7-130.4,41.2-248.1,42.5-338.9,3-14.6-25.8-84.4-163.4-20.6-341.9Z" fill="#231f20"/>
    </g>
  </g>
</svg>